 <svg
              width="61"
              height="55"
              viewBox="0 0 61 55"
              fill="none"
              xmlns="http://www.w3.org/2000/svg"
            >
              <path
                d="M6.77778 3.4375C3.03941 3.4375 0 6.52051 0 10.3125V44.6875C0 48.4795 3.03941 51.5625 6.77778 51.5625H54.2222C57.9606 51.5625 61 48.4795 61 44.6875V10.3125C61 6.52051 57.9606 3.4375 54.2222 3.4375H6.77778ZM15.25 30.9375H22.0278C26.7087 30.9375 30.5 34.7832 30.5 39.5312C30.5 40.4766 29.7375 41.25 28.8056 41.25H8.47222C7.54028 41.25 6.77778 40.4766 6.77778 39.5312C6.77778 34.7832 10.5691 30.9375 15.25 30.9375ZM11.8611 20.625C11.8611 18.8016 12.5752 17.053 13.8463 15.7636C15.1174 14.4743 16.8413 13.75 18.6389 13.75C20.4365 13.75 22.1604 14.4743 23.4315 15.7636C24.7026 17.053 25.4167 18.8016 25.4167 20.625C25.4167 22.4484 24.7026 24.197 23.4315 25.4864C22.1604 26.7757 20.4365 27.5 18.6389 27.5C16.8413 27.5 15.1174 26.7757 13.8463 25.4864C12.5752 24.197 11.8611 22.4484 11.8611 20.625ZM38.9722 17.1875H52.5278C53.4597 17.1875 54.2222 17.9609 54.2222 18.9062C54.2222 19.8516 53.4597 20.625 52.5278 20.625H38.9722C38.0403 20.625 37.2778 19.8516 37.2778 18.9062C37.2778 17.9609 38.0403 17.1875 38.9722 17.1875ZM38.9722 24.0625H52.5278C53.4597 24.0625 54.2222 24.8359 54.2222 25.7812C54.2222 26.7266 53.4597 27.5 52.5278 27.5H38.9722C38.0403 27.5 37.2778 26.7266 37.2778 25.7812C37.2778 24.8359 38.0403 24.0625 38.9722 24.0625ZM38.9722 30.9375H52.5278C53.4597 30.9375 54.2222 31.7109 54.2222 32.6562C54.2222 33.6016 53.4597 34.375 52.5278 34.375H38.9722C38.0403 34.375 37.2778 33.6016 37.2778 32.6562C37.2778 31.7109 38.0403 30.9375 38.9722 30.9375Z"
                fill="#1C98F7"
              />
            </svg>