 <svg
                      width="50"
                      height="50"
                      viewBox="0 0 50 50"
                      fill="none"
                      xmlns="http://www.w3.org/2000/svg"
                    >
                      <path
                        d="M47.9173 25L42.834 19.1875L43.5423 11.5L36.0215 9.79167L32.084 3.125L25.0007 6.16667L17.9173 3.125L13.9798 9.77083L6.45898 11.4583L7.16732 19.1667L2.08398 25L7.16732 30.8125L6.45898 38.5208L13.9798 40.2292L17.9173 46.875L25.0007 43.8125L32.084 46.8542L36.0215 40.2083L43.5423 38.5L42.834 30.8125L47.9173 25ZM19.5423 33.3542L14.584 28.3542C14.3909 28.1614 14.2376 27.9325 14.1331 27.6805C14.0285 27.4284 13.9747 27.1583 13.9747 26.8854C13.9747 26.6126 14.0285 26.3424 14.1331 26.0904C14.2376 25.8383 14.3909 25.6094 14.584 25.4167L14.7298 25.2708C15.5423 24.4583 16.8757 24.4583 17.6882 25.2708L21.0423 28.6458L31.7715 17.8958C32.584 17.0833 33.9173 17.0833 34.7298 17.8958L34.8756 18.0417C35.6881 18.8542 35.6881 20.1667 34.8756 20.9792L22.5423 33.3542C21.6882 34.1667 20.3757 34.1667 19.5423 33.3542Z"
                        fill="#FF9900"
                      />
                    </svg>