 <svg
                      width="52"
                      height="52"
                      viewBox="0 0 52 52"
                      fill="none"
                      xmlns="http://www.w3.org/2000/svg"
                    >
                      <path
                        d="M11.375 9.75C9.22012 9.75 7.15349 10.606 5.62976 12.1298C4.10602 13.6535 3.25 15.7201 3.25 17.875V19.5H48.75V17.875C48.75 15.7201 47.894 13.6535 46.3702 12.1298C44.8465 10.606 42.7799 9.75 40.625 9.75H11.375ZM48.75 22.75H3.25V34.125C3.25 36.2799 4.10602 38.3465 5.62976 39.8702C7.15349 41.394 9.22012 42.25 11.375 42.25H40.625C42.7799 42.25 44.8465 41.394 46.3702 39.8702C47.894 38.3465 48.75 36.2799 48.75 34.125V22.75ZM34.125 32.5H40.625C41.056 32.5 41.4693 32.6712 41.774 32.976C42.0788 33.2807 42.25 33.694 42.25 34.125C42.25 34.556 42.0788 34.9693 41.774 35.274C41.4693 35.5788 41.056 35.75 40.625 35.75H34.125C33.694 35.75 33.2807 35.5788 32.976 35.274C32.6712 34.9693 32.5 34.556 32.5 34.125C32.5 33.694 32.6712 33.2807 32.976 32.976C33.2807 32.6712 33.694 32.5 34.125 32.5Z"
                        fill="#FF9900"
                      />
                    </svg>