            <svg width="25" height="24" viewBox="0 0 25 24" fill="none" xmlns="http://www.w3.org/2000/svg">
<path d="M7.5 22C6.95 22 6.47933 21.8043 6.088 21.413C5.69667 21.0217 5.50067 20.5507 5.5 20C5.5 19.45 5.696 18.9793 6.088 18.588C6.48 18.1967 6.95067 18.0007 7.5 18C8.05 18 8.521 18.196 8.913 18.588C9.305 18.98 9.50067 19.4507 9.5 20C9.5 20.55 9.30433 21.021 8.913 21.413C8.52167 21.805 8.05067 22.0007 7.5 22ZM17.5 22C16.95 22 16.4793 21.8043 16.088 21.413C15.6967 21.0217 15.5007 20.5507 15.5 20C15.5 19.45 15.696 18.9793 16.088 18.588C16.48 18.1967 16.9507 18.0007 17.5 18C18.05 18 18.521 18.196 18.913 18.588C19.305 18.98 19.5007 19.4507 19.5 20C19.5 20.55 19.3043 21.021 18.913 21.413C18.5217 21.805 18.0507 22.0007 17.5 22ZM5.7 4H20.45C20.8333 4 21.125 4.171 21.325 4.513C21.525 4.855 21.5333 5.20067 21.35 5.55L17.8 11.95C17.6167 12.2833 17.371 12.5417 17.063 12.725C16.755 12.9083 16.4173 13 16.05 13H8.6L7.5 15H19.5V17H7.5C6.75 17 6.18333 16.671 5.8 16.013C5.41667 15.355 5.4 14.7007 5.75 14.05L7.1 11.6L3.5 4H1.5V2H4.75L5.7 4Z" fill="white"/>
</svg>