      <svg
                      width="52"
                      height="52"
                      viewBox="0 0 52 52"
                      fill="none"
                      xmlns="http://www.w3.org/2000/svg"
                    >
                      <path
                        d="M38.9994 40.0834C40.7977 40.0834 42.2494 38.6317 42.2494 36.8334C42.2494 35.0351 40.7977 33.5834 38.9994 33.5834C37.201 33.5834 35.7494 35.0351 35.7494 36.8334C35.7494 38.6317 37.201 40.0834 38.9994 40.0834ZM42.2494 20.5834H36.8327V26.0001H46.496L42.2494 20.5834ZM12.9993 40.0834C14.7977 40.0834 16.2493 38.6317 16.2493 36.8334C16.2493 35.0351 14.7977 33.5834 12.9993 33.5834C11.201 33.5834 9.74935 35.0351 9.74935 36.8334C9.74935 38.6317 11.201 40.0834 12.9993 40.0834ZM43.3327 17.3334L49.8327 26.0001V36.8334H45.4994C45.4994 40.4301 42.596 43.3334 38.9994 43.3334C35.4027 43.3334 32.4993 40.4301 32.4993 36.8334H19.4993C19.4993 40.4301 16.596 43.3334 12.9993 43.3334C9.40268 43.3334 6.49935 40.4301 6.49935 36.8334H2.16602V13.0001C2.16602 10.5951 4.09435 8.66675 6.49935 8.66675H36.8327V17.3334H43.3327ZM6.49935 13.0001V32.5001H8.14602C9.33768 31.1784 11.071 30.3334 12.9993 30.3334C14.9277 30.3334 16.661 31.1784 17.8527 32.5001H32.4993V13.0001H6.49935ZM21.666 15.1667L29.2493 22.7501L21.666 30.3334V24.9167H10.8327V20.5834H21.666V15.1667Z"
                        fill="#FF9900"
                      />
                    </svg>