<svg width="40" height="40" viewBox="0 0 40 40" fill="none" xmlns="http://www.w3.org/2000/svg">
<path opacity="0.3" d="M10 33.3337H30V16.667H10V33.3337ZM20 21.667C21.8333 21.667 23.3333 23.167 23.3333 25.0003C23.3333 26.8337 21.8333 28.3337 20 28.3337C18.1667 28.3337 16.6667 26.8337 16.6667 25.0003C16.6667 23.167 18.1667 21.667 20 21.667Z" fill="#FF9900"/>
<path d="M29.9993 13.3337H28.3327V10.0003C28.3327 5.40033 24.5993 1.66699 19.9993 1.66699C15.3993 1.66699 11.666 5.40033 11.666 10.0003V13.3337H9.99935C8.16602 13.3337 6.66602 14.8337 6.66602 16.667V33.3337C6.66602 35.167 8.16602 36.667 9.99935 36.667H29.9993C31.8327 36.667 33.3327 35.167 33.3327 33.3337V16.667C33.3327 14.8337 31.8327 13.3337 29.9993 13.3337ZM14.9993 10.0003C14.9993 7.23366 17.2327 5.00033 19.9993 5.00033C22.766 5.00033 24.9993 7.23366 24.9993 10.0003V13.3337H14.9993V10.0003ZM29.9993 33.3337H9.99935V16.667H29.9993V33.3337ZM19.9993 28.3337C21.8327 28.3337 23.3327 26.8337 23.3327 25.0003C23.3327 23.167 21.8327 21.667 19.9993 21.667C18.166 21.667 16.666 23.167 16.666 25.0003C16.666 26.8337 18.166 28.3337 19.9993 28.3337Z" fill="#FF9900"/>
</svg>
