   <svg
                      width="52"
                      height="52"
                      viewBox="0 0 52 52"
                      fill="none"
                      xmlns="http://www.w3.org/2000/svg"
                    >
                      <path
                        d="M10.834 36.8333C10.834 37.9826 11.2905 39.0848 12.1032 39.8975C12.9158 40.7101 14.018 41.1667 15.1673 41.1667C16.3166 41.1667 17.4188 40.7101 18.2314 39.8975C19.0441 39.0848 19.5007 37.9826 19.5007 36.8333C19.5007 35.6841 19.0441 34.5819 18.2314 33.7692C17.4188 32.9565 16.3166 32.5 15.1673 32.5C14.018 32.5 12.9158 32.9565 12.1032 33.7692C11.2905 34.5819 10.834 35.6841 10.834 36.8333ZM32.5007 36.8333C32.5007 37.9826 32.9572 39.0848 33.7699 39.8975C34.5825 40.7101 35.6847 41.1667 36.834 41.1667C37.9833 41.1667 39.0855 40.7101 39.8981 39.8975C40.7108 39.0848 41.1673 37.9826 41.1673 36.8333C41.1673 35.6841 40.7108 34.5819 39.8981 33.7692C39.0855 32.9565 37.9833 32.5 36.834 32.5C35.6847 32.5 34.5825 32.9565 33.7699 33.7692C32.9572 34.5819 32.5007 35.6841 32.5007 36.8333Z"
                        stroke="#FF9900"
                        stroke-width="4"
                        stroke-linecap="round"
                        stroke-linejoin="round"
                      />
                      <path
                        d="M10.8333 36.8333H6.5V12.9999C6.5 12.4253 6.72827 11.8742 7.1346 11.4679C7.54093 11.0615 8.09203 10.8333 8.66667 10.8333H28.1667V23.8333H17.3333M17.3333 23.8333L21.6667 28.1666M17.3333 23.8333L21.6667 19.4999M19.5 36.8333H32.5M28.1667 12.9999H39L45.5 23.8333V36.8333H41.1667"
                        stroke="#FF9900"
                        stroke-width="4"
                        stroke-linecap="round"
                        stroke-linejoin="round"
                      />
                    </svg>