    <svg
            width="30"
            height="30"
            viewBox="0 0 30 30"
            fill="none"
            xmlns="http://www.w3.org/2000/svg"
          >
            <g clip-path="url(#clip0_434_6976)">
              <path
                d="M19.2462 17.4833H18.2653L17.9176 17.1481C19.4076 15.4097 20.1775 13.0382 19.7553 10.5176C19.1717 7.06575 16.2911 4.30925 12.8144 3.88708C7.56214 3.24141 3.1418 7.66175 3.78747 12.914C4.20964 16.3907 6.96614 19.2713 10.418 19.8549C12.9386 20.2771 15.3101 19.5072 17.0485 18.0172L17.3837 18.3649V19.3458L22.6608 24.6229C23.1699 25.132 24.0018 25.132 24.5109 24.6229C25.02 24.1138 25.02 23.2819 24.5109 22.7728L19.2462 17.4833ZM11.7962 17.4833C8.70447 17.4833 6.20872 14.9876 6.20872 11.8958C6.20872 8.80408 8.70447 6.30833 11.7962 6.30833C14.888 6.30833 17.3837 8.80408 17.3837 11.8958C17.3837 14.9876 14.888 17.4833 11.7962 17.4833Z"
                fill="#989898"
              />
            </g>
            <defs>
              <clipPath id="clip0_434_6976">
                <rect
                  width="29.8"
                  height="29.8"
                  fill="white"
                  transform="translate(0 0.0996094)"
                />
              </clipPath>
            </defs>
          </svg>