<svg width="43" height="44" viewBox="0 0 43 44" fill="none" xmlns="http://www.w3.org/2000/svg">
<path d="M17.104 3.12952C15.808 4.44783 14.152 5.25347 12.496 5.39994L9.83203 5.61966L12.496 8.40276C14.512 10.5999 15.52 11.1859 17.104 10.9661C18.832 10.7464 19.264 10.2337 20.272 6.71825C21.424 2.83656 23.08 0.932339 23.08 3.56896C23.08 6.27882 25.096 10.6732 26.536 11.1859C27.76 11.6253 28.696 11.1859 31 8.98868C32.584 7.52389 33.88 6.0591 33.88 5.76614C33.88 5.47318 32.8 5.25347 31.432 5.25347C29.632 5.25347 28.336 4.66755 26.824 3.05628C23.872 0.126705 20.056 0.126705 17.104 3.12952Z" fill="#EF7B00"/>
<path d="M5.07977 12.724C5.00777 15.8733 3.78377 18.4366 2.34377 18.4366C1.40777 18.4366 0.759766 20.1944 0.759766 22.831C0.759766 24.369 1.33577 25.2479 2.91977 26.2C4.71977 27.2986 5.00777 27.9578 5.22377 31.1803L5.43977 34.8423L8.89577 31.4733C10.7678 29.6423 12.2798 27.7381 12.2798 27.2986C12.2798 25.9071 7.74377 23.5634 4.93577 23.5634C3.06377 23.5634 2.19977 23.2705 2.19977 22.5381C2.19977 21.4395 2.91977 21.1465 7.23977 20.1944C10.1198 19.6085 12.2798 18.3634 12.2798 17.3381C12.2798 16.4592 6.30377 9.64791 5.58377 9.64791C5.29577 9.64791 5.07977 11.0395 5.07977 12.724Z" fill="#EF7B00"/>
<path d="M34.7435 13.6028C32.0795 16.6788 32.3675 18.7295 35.5355 19.9014C40.4315 21.7323 41.0795 22.0985 41.0795 22.8309C41.0795 23.1971 40.2875 23.5633 39.2795 23.5633C37.0475 23.5633 33.4475 25.3211 32.9435 26.6394C32.5115 27.8845 33.5915 29.9352 35.7515 32.1324C37.8395 34.2563 38.9195 33.7436 38.9195 30.814C38.9195 29.4957 39.5675 28.0309 40.5755 27.0056C41.5115 26.1267 42.4475 24.1493 42.7355 22.6845C43.0955 20.414 42.8075 19.6816 41.0075 17.7774C39.6395 16.3126 38.9195 14.7746 38.9195 13.3098C38.9195 10.3802 37.4795 10.4535 34.7435 13.6028Z" fill="#EF7B00"/>
<path d="M13.3607 35.2817C10.2647 38.5042 10.5527 39.676 14.5847 39.676C15.7367 39.676 17.0327 40.4084 17.8967 41.507C19.5527 43.7042 22.7927 44.1436 21.7127 42.0197C21.3527 41.3605 20.6327 39.3098 20.1287 37.4789C18.4727 31.4 17.3927 31.0338 13.3607 35.2817Z" fill="#EF7B00"/>
<path d="M25.9601 33.3042C23.7281 35.1352 22.0721 43.338 23.8721 43.338C24.3761 43.338 25.4561 42.5324 26.3921 41.507C27.5441 40.1887 28.8401 39.676 30.6401 39.676C33.9521 39.676 33.8801 38.5042 30.4241 35.062C27.4001 32.0591 27.4721 32.0591 25.9601 33.3042Z" fill="#EF7B00"/>
</svg>
